<svg width="45" height="50" viewBox="0 0 45 50" fill="none" xmlns="http://www.w3.org/2000/svg">
<path d="M39.1209 5.43406L36.2063 4.59031C35.9102 3.29062 35.1622 2.1272 34.0861 1.2925C33.01 0.457798 31.6702 0.00182367 30.2885 0H14.7115C13.3298 0.00182367 11.99 0.457798 10.9139 1.2925C9.83782 2.1272 9.08985 3.29062 8.79372 4.59031L5.8791 5.43406C4.19773 5.84162 2.70598 6.77849 1.64081 8.09588C0.575634 9.41326 -0.00187664 11.0356 4.58149e-06 12.7052V44.1667C-8.63445e-05 44.5181 0.0769619 44.8656 0.226099 45.1864C0.375235 45.5072 0.593093 45.794 0.865389 46.028V49.1667C0.865389 49.3877 0.956563 49.5996 1.11885 49.7559C1.28115 49.9122 1.50126 50 1.73077 50H6.92308C7.15259 50 7.37271 49.9122 7.535 49.7559C7.69729 49.5996 7.78846 49.3877 7.78846 49.1667V46.028C8.05345 45.8001 8.2669 45.522 8.41554 45.2113C8.56417 44.9005 8.64481 44.5635 8.65244 44.2215C9.16592 44.5833 9.75834 44.8275 10.3846 44.9355V47.5C10.3846 47.721 10.4758 47.933 10.6381 48.0893C10.8004 48.2455 11.0205 48.3333 11.25 48.3333H33.75C33.9795 48.3333 34.1996 48.2455 34.3619 48.0893C34.5242 47.933 34.6154 47.721 34.6154 47.5V44.9355C35.2417 44.8275 35.8341 44.5833 36.3476 44.2215C36.3552 44.5635 36.4358 44.9005 36.5845 45.2113C36.7331 45.522 36.9465 45.8001 37.2115 46.028V49.1667C37.2115 49.3877 37.3027 49.5996 37.465 49.7559C37.6273 49.9122 37.8474 50 38.0769 50H43.2692C43.4987 50 43.7189 49.9122 43.8811 49.7559C44.0434 49.5996 44.1346 49.3877 44.1346 49.1667V46.028C44.4069 45.794 44.6248 45.5072 44.7739 45.1864C44.923 44.8656 45.0001 44.5181 45 44.1667V12.7052C45.0019 11.0356 44.4244 9.41326 43.3592 8.09588C42.294 6.77849 40.8023 5.84162 39.1209 5.43406V5.43406ZM30.779 1.69323C31.7576 1.8022 32.6685 2.22884 33.3616 2.90289C34.0548 3.57694 34.4889 4.4582 34.5924 5.40156L25.0246 11.5439L30.779 1.69323ZM18.1384 5H26.8616L22.5 12.4669L18.1384 5ZM27.8352 3.33333H17.1648L16.1912 1.66667H28.8088L27.8352 3.33333ZM14.221 1.69323L19.9758 11.5444L10.4076 5.40208C10.511 4.45863 10.9451 3.57724 11.6382 2.90309C12.3314 2.22893 13.2423 1.80222 14.221 1.69323V1.69323ZM6.0577 48.3333H2.59616V46.6667H6.0577V48.3333ZM32.8846 46.6667H12.1154V45H32.8846V46.6667ZM33.8729 43.3333H11.1271C10.4714 43.3326 9.84274 43.0815 9.37908 42.635C8.91541 42.1885 8.65459 41.5831 8.65385 40.9517V18.3333C8.65385 18.1123 8.56267 17.9004 8.40038 17.7441C8.23809 17.5878 8.01798 17.5 7.78846 17.5C7.55895 17.5 7.33884 17.5878 7.17655 17.7441C7.01425 17.9004 6.92308 18.1123 6.92308 18.3333V44.1667C6.92282 44.3876 6.83156 44.5994 6.66933 44.7556C6.50709 44.9119 6.28713 44.9998 6.0577 45H2.59616C2.36672 44.9998 2.14676 44.9119 1.98452 44.7556C1.82229 44.5994 1.73103 44.3876 1.73077 44.1667V12.7052C1.72924 11.4039 2.18026 10.1396 3.0119 9.1139C3.84354 8.08821 5.00789 7.36022 6.31926 7.04604C6.33245 7.04281 6.34554 7.03937 6.35852 7.03562L8.82 6.32313C8.87996 6.40294 8.95417 6.47185 9.03916 6.52667L19.9038 13.5016V25C19.9038 25.221 19.995 25.433 20.1573 25.5893C20.3196 25.7455 20.5397 25.8333 20.7692 25.8333C20.9987 25.8333 21.2189 25.7455 21.3812 25.5893C21.5434 25.433 21.6346 25.221 21.6346 25V14.6126L22.0199 14.86C22.1621 14.9513 22.3291 15 22.5 15C22.6709 15 22.8379 14.9513 22.9801 14.86L23.3654 14.6126V25C23.3654 25.221 23.4566 25.433 23.6188 25.5893C23.7811 25.7455 24.0013 25.8333 24.2308 25.8333C24.4603 25.8333 24.6804 25.7455 24.8427 25.5893C25.005 25.433 25.0962 25.221 25.0962 25V13.5016L35.9608 6.52667C36.0458 6.47185 36.12 6.40294 36.18 6.32313L38.6415 7.03562C38.6545 7.03937 38.6675 7.04281 38.6807 7.04604C39.9921 7.36022 41.1565 8.08821 41.9881 9.1139C42.8197 10.1396 43.2708 11.4039 43.2692 12.7052V44.1667C43.269 44.3876 43.1777 44.5994 43.0155 44.7556C42.8532 44.9119 42.6333 44.9998 42.4038 45H38.9423C38.7129 44.9998 38.4929 44.9119 38.3307 44.7556C38.1684 44.5994 38.0772 44.3876 38.0769 44.1667V18.3333C38.0769 18.1123 37.9857 17.9004 37.8235 17.7441C37.6612 17.5878 37.441 17.5 37.2115 17.5C36.982 17.5 36.7619 17.5878 36.5996 17.7441C36.4373 17.9004 36.3461 18.1123 36.3461 18.3333V40.9517C36.3454 41.5831 36.0846 42.1885 35.6209 42.635C35.1573 43.0815 34.5286 43.3326 33.8729 43.3333V43.3333ZM42.4038 48.3333H38.9423V46.6667H42.4038V48.3333Z" fill="black"/>
</svg>
