<svg width="25" height="25" viewBox="0 0 25 25" fill="none" xmlns="http://www.w3.org/2000/svg">
<path d="M12.5 0C5.59658 0 0 5.59658 0 12.5C0 19.4034 5.59658 25 12.5 25C19.4034 25 25 19.4034 25 12.5C25 5.59658 19.4034 0 12.5 0ZM12.5 22.9167C6.74717 22.9167 2.08335 18.2528 2.08335 12.5C2.08335 6.74717 6.74717 2.08335 12.5 2.08335C18.2528 2.08335 22.9167 6.74717 22.9167 12.5C22.9167 18.2528 18.2528 22.9167 12.5 22.9167Z" fill="black"/>
<path d="M18.7498 11.4584H6.25185C5.67656 11.4584 5.21021 11.9247 5.21021 12.5C5.21021 13.0753 5.67656 13.5417 6.25185 13.5417H18.7497C19.325 13.5417 19.7914 13.0753 19.7914 12.5C19.7914 11.9247 19.3251 11.4584 18.7498 11.4584Z" fill="black"/>
</svg>
