<svg width="30" height="50" viewBox="0 0 30 50" fill="none" xmlns="http://www.w3.org/2000/svg">
<path d="M29.2256 49.3605L27.7913 0.60296C27.7813 0.266993 27.5061 -0.00011416 27.17 3.66035e-08H2.04668C1.7106 -0.00011416 1.43539 0.266993 1.42545 0.60296L0.000271925 49.3605C-0.00977741 49.7034 0.259956 49.9896 0.603004 49.9998C0.60917 50 0.615337 50 0.621504 50H8.15851C8.45211 49.9998 8.70563 49.794 8.76604 49.5067L14.6175 21.3914L20.4689 49.5067C20.5294 49.794 20.7829 49.9998 21.0765 50H28.6043C28.9474 50.0001 29.2257 49.7222 29.2258 49.379C29.2258 49.3728 29.2258 49.3667 29.2256 49.3605ZM26.9051 12.6119C25.4205 12.009 24.6805 7.6786 24.58 4.24356H26.6584L26.9051 12.6119ZM22.6387 1.24703H26.5671L26.6219 3.01937H22.6387V1.24703ZM15.2387 1.24703H21.4008V3.00566L16.0244 3.01937H15.2387V1.24703V1.24703ZM15.4032 4.26183V12.5982C14.4728 12.3217 13.834 11.4675 13.8318 10.497V4.26183H15.4032V4.26183ZM7.58295 1.24703H13.978V3.00566L13.2106 3.01937H7.58295V1.24703ZM2.66791 1.24703H6.34049V3.00566H2.6131L2.66791 1.24703ZM2.57656 4.24813H4.65494C4.55445 7.68317 3.81445 12.0135 2.32989 12.6165L2.57656 4.24813ZM21.5835 48.753L15.225 18.2167C15.1533 17.8812 14.8233 17.6673 14.4878 17.7389C14.2483 17.7901 14.0611 17.9771 14.01 18.2167L7.65147 48.753H1.25644L2.28421 13.9046C5.35383 13.4478 5.82432 6.72849 5.88827 4.24356H12.5894V10.497C12.5919 12.3931 14.1283 13.9295 16.0244 13.932C16.3674 13.932 16.6456 13.6538 16.6456 13.3108V4.24356H23.333C23.4015 6.72849 23.872 13.4707 26.9508 13.9046L27.9648 48.753H21.5835Z" fill="black"/>
</svg>
