<svg width="50" height="50" viewBox="0 0 50 50" fill="none" xmlns="http://www.w3.org/2000/svg">
<path d="M9.61695 46.6445L24.7955 49.9778C24.93 50.0074 25.07 50.0074 25.2045 49.9778L40.3831 46.6445C40.579 46.6015 40.7536 46.498 40.8785 46.3507C41.0035 46.2035 41.0715 46.0212 41.0714 45.8333V41.6667H45.5357C45.746 41.6667 45.9495 41.5974 46.1104 41.4711C46.2713 41.3448 46.3793 41.1695 46.4154 40.9762L49.9868 21.8095C50.013 21.6687 50 21.5241 49.9491 21.3894L44.592 7.2227C44.5429 7.09282 44.4601 6.97633 44.3509 6.88364C44.2418 6.79096 44.1097 6.72497 43.9666 6.69159L33.5448 4.25985L30.1615 0.312708C30.0788 0.21624 29.9741 0.138139 29.8551 0.0840571C29.736 0.029975 29.6056 0.00126368 29.4732 0H20.5268C20.3944 0.00126368 20.264 0.029975 20.1449 0.0840571C20.0259 0.138139 19.9212 0.21624 19.8385 0.312708L16.4552 4.25985L6.03342 6.69159C5.89026 6.72497 5.7582 6.79096 5.64906 6.88364C5.53992 6.97633 5.45711 7.09282 5.40802 7.2227L0.0508752 21.3894C-1.9325e-05 21.5241 -0.0130042 21.6687 0.0131641 21.8095L3.5846 40.9762C3.62065 41.1695 3.72865 41.3448 3.88957 41.4711C4.05049 41.5974 4.254 41.6667 4.46427 41.6667H8.92856V45.8333C8.92853 46.0212 8.99652 46.2035 9.12148 46.3507C9.24643 46.498 9.42104 46.6015 9.61695 46.6445V46.6445ZM25 4.53171L22.4419 1.66667H27.5581L25 4.53171ZM41.0714 40V37.5H45.2506L44.7848 40H41.0714ZM48.1875 21.7386L45.5612 35.8333H41.0714V16.6667H39.2857V45.1733L25.8929 48.1145V7.84526L28.8329 10.5893C29.0004 10.7455 29.2274 10.8333 29.4642 10.8333C29.4935 10.8333 29.5229 10.832 29.5522 10.8293C29.6837 10.8171 29.8106 10.7779 29.9239 10.7144C30.0372 10.651 30.1339 10.5648 30.2072 10.4622L33.4296 5.95085L43.0678 8.19977L48.1875 21.7386ZM31.9307 5.04476L29.3255 8.69202L26.208 5.78217L29.4502 2.15088L31.9307 5.04476ZM20.5498 2.15088L23.792 5.78217L20.6745 8.69202L18.0693 5.04476L20.5498 2.15088ZM6.93216 8.19977L16.5704 5.95085L19.7928 10.4622C19.8661 10.5648 19.9628 10.651 20.0761 10.7144C20.1894 10.7779 20.3163 10.8171 20.4478 10.8293C20.4772 10.832 20.5065 10.8334 20.5358 10.8333C20.7726 10.8333 20.9996 10.7455 21.1671 10.5893L24.1071 7.84526V48.1145L10.7143 45.1733V16.6667H8.92856V35.8333H4.43882L1.8125 21.7386L6.93216 8.19977ZM4.74939 37.5H8.92856V40H5.21522L4.74939 37.5Z" fill="black"/>
<path d="M28.125 16.4062C27.9178 16.4063 27.7191 16.4886 27.5726 16.6351C27.4261 16.7816 27.3438 16.9803 27.3438 17.1875V23.4375C27.3438 23.6447 27.4261 23.8434 27.5726 23.9899C27.7191 24.1364 27.9178 24.2187 28.125 24.2188H34.375C34.5822 24.2187 34.7809 24.1364 34.9274 23.9899C35.0739 23.8434 35.1562 23.6447 35.1562 23.4375V17.1875C35.1562 16.9803 35.0739 16.7816 34.9274 16.6351C34.7809 16.4886 34.5822 16.4063 34.375 16.4062H28.125ZM33.5938 22.6562H28.9062V17.9688H33.5938V22.6562Z" fill="black"/>
</svg>
