<svg width="50" height="50" viewBox="0 0 50 50" fill="none" xmlns="http://www.w3.org/2000/svg">
<path d="M49.7302 13.3865C49.7187 13.3731 49.7068 13.36 49.6946 13.3473L39.3733 3.22612C39.2791 3.1314 39.1692 3.05793 39.0496 3.00962L31.5833 0.0652827C31.074 -0.138764 30.5112 0.151475 30.3262 0.713417C30.2929 0.814764 30.2735 0.920982 30.2686 1.02869C30.2686 1.26683 29.9448 6.755 24.9706 6.8416C19.9669 6.755 19.6529 1.26683 19.6431 1.02869C19.6142 0.431702 19.1521 -0.026322 18.611 0.00561112C18.518 0.0111588 18.4262 0.0311847 18.3382 0.0652827L10.8818 3.0421C10.7621 3.0904 10.6522 3.16388 10.558 3.25859L0.305359 13.3473C-0.0874544 13.759 -0.103397 14.4442 0.269794 14.8776C0.281322 14.891 0.293218 14.9042 0.305359 14.9169L8.46823 24.0205V48.9175C8.46823 49.5153 8.90752 50 9.44934 50H40.5507C41.0925 50 41.5318 49.5153 41.5318 48.9175V24.0205L49.6946 14.9169C50.0875 14.5051 50.1034 13.8201 49.7302 13.3865ZM41.5023 20.9355V15.9128C41.5023 15.315 41.063 14.8303 40.5212 14.8303C39.9794 14.8303 39.5401 15.315 39.5401 15.9128V47.7809H10.3912V15.9128C10.3912 15.315 9.95192 14.8303 9.4101 14.8303C8.86828 14.8303 8.42898 15.315 8.42898 15.9128V20.9463L2.39513 14.2024L11.7353 4.97973L17.8771 2.53333C18.638 6.85865 22.4328 9.68459 26.3531 8.84513C29.2482 8.22514 31.5119 5.72759 32.0738 2.53333L38.2156 4.97973L47.5264 14.2024L41.5023 20.9355Z" fill="black"/>
</svg>
