<svg width="25" height="25" viewBox="0 0 25 25" fill="none" xmlns="http://www.w3.org/2000/svg">
<path d="M15.9484 9.05754C15.625 9.05754 15.3629 9.31963 15.3629 9.64302V20.7086C15.3629 21.0318 15.625 21.2941 15.9484 21.2941C16.2718 21.2941 16.5339 21.0318 16.5339 20.7086V9.64302C16.5339 9.31963 16.2718 9.05754 15.9484 9.05754Z" fill="black"/>
<path d="M9.03973 9.05754C8.71635 9.05754 8.45425 9.31963 8.45425 9.64302V20.7086C8.45425 21.0318 8.71635 21.2941 9.03973 21.2941C9.36312 21.2941 9.62521 21.0318 9.62521 20.7086V9.64302C9.62521 9.31963 9.36312 9.05754 9.03973 9.05754Z" fill="black"/>
<path d="M2.04739 7.44274V21.8677C2.04739 22.7203 2.43232 23.521 3.10476 24.0955C3.7741 24.6716 4.7056 24.9986 5.68046 25H19.3195C20.2947 24.9986 21.2262 24.6716 21.8952 24.0955C22.5677 23.521 22.9526 22.7203 22.9526 21.8677V7.44274C24.2893 7.15458 25.1555 6.10575 24.9767 4.99174C24.7976 3.87796 23.6293 3.04479 22.2461 3.04456H18.5553V2.31272C18.5595 1.69728 18.2599 1.10631 17.7235 0.671547C17.1871 0.237013 16.4583 -0.00495453 15.7005 7.6927e-05H9.29945C8.54169 -0.00495453 7.81294 0.237013 7.27651 0.671547C6.74008 1.10631 6.44047 1.69728 6.44469 2.31272V3.04456H2.7539C1.37073 3.04479 0.202412 3.87796 0.0233205 4.99174C-0.155489 6.10575 0.710681 7.15458 2.04739 7.44274V7.44274ZM19.3195 23.829H5.68046C4.44794 23.829 3.48913 22.9691 3.48913 21.8677V7.4942H21.5109V21.8677C21.5109 22.9691 20.5521 23.829 19.3195 23.829ZM7.88643 2.31272C7.88165 2.00786 8.0292 1.71443 8.29558 1.49922C8.56169 1.28401 8.92381 1.16577 9.29945 1.17103H15.7005C16.0762 1.16577 16.4383 1.28401 16.7044 1.49922C16.9708 1.7142 17.1184 2.00786 17.1136 2.31272V3.04456H7.88643V2.31272ZM2.7539 4.21552H22.2461C22.9628 4.21552 23.5437 4.68733 23.5437 5.26938C23.5437 5.85143 22.9628 6.32324 22.2461 6.32324H2.7539C2.03725 6.32324 1.45633 5.85143 1.45633 5.26938C1.45633 4.68733 2.03725 4.21552 2.7539 4.21552V4.21552Z" fill="black"/>
<path d="M12.494 9.05754C12.1707 9.05754 11.9086 9.31963 11.9086 9.64302V20.7086C11.9086 21.0318 12.1707 21.2941 12.494 21.2941C12.8174 21.2941 13.0795 21.0318 13.0795 20.7086V9.64302C13.0795 9.31963 12.8174 9.05754 12.494 9.05754Z" fill="black"/>
</svg>
