<svg width="50" height="50" viewBox="0 0 50 50" fill="none" xmlns="http://www.w3.org/2000/svg">
<path d="M45.8333 10.9195H43.3333V4.96341C43.3321 3.64748 42.8927 2.38588 42.1116 1.45538C41.3304 0.524881 40.2714 0.00147792 39.1667 0H4.16667C3.06198 0.00147792 2.00289 0.524881 1.22176 1.45538C0.440626 2.38588 0.00124068 3.64748 0 4.96341V33.9125C0.000674205 34.9414 0.269459 35.9447 0.769249 36.7838C1.26904 37.623 1.97519 38.2566 2.79021 38.5973V38.5973L29.4569 49.7153C29.9034 49.9028 30.3734 49.9991 30.8469 50C31.9496 49.9925 33.0051 49.4658 33.7832 48.5348C34.5612 47.6038 34.9986 46.3442 35 45.0305V33.7512H39.1667C40.2714 33.7497 41.3304 33.2263 42.1116 32.2958C42.8927 31.3653 43.3321 30.1037 43.3333 28.7878V20.8463H45.8333C46.9384 20.8463 47.9982 20.3234 48.7796 19.3926C49.561 18.4617 50 17.1993 50 15.8829C50 14.5665 49.561 13.3041 48.7796 12.3732C47.9982 11.4424 46.9384 10.9195 45.8333 10.9195V10.9195ZM28.7334 13.8975L23.1778 11.9122H41.6667V13.8975H28.7334ZM41.6667 9.92681H17.6223L12.0668 7.94145H41.6667V9.92681ZM4.16667 1.98536H39.1667C39.8295 1.98625 40.4649 2.30029 40.9336 2.85859C41.4023 3.41689 41.6659 4.17385 41.6667 4.96341V5.95609H6.51115L1.73958 4.25091C1.87397 3.60486 2.18588 3.0309 2.62569 2.62037C3.06549 2.20984 3.60792 1.98631 4.16667 1.98536V1.98536ZM33.3333 45.0305C33.3333 45.5061 33.2377 45.9749 33.0544 46.3974C32.8712 46.82 32.6056 47.1841 32.28 47.4594C31.9543 47.7346 31.5781 47.9129 31.1827 47.9794C30.7873 48.0458 30.3844 47.9985 30.0075 47.8414L3.34083 36.7234C2.8518 36.519 2.4281 36.1388 2.12821 35.6353C1.82833 35.1318 1.66706 34.5298 1.66667 33.9125V6.29757L31.5521 16.9775C32.0683 17.159 32.521 17.5352 32.8423 18.0496C33.1635 18.564 33.3358 19.1888 33.3333 19.8299V45.0305ZM33.3665 15.8829H41.2708C40.5701 17.5267 38.8407 20.35 35 21.4128V19.8299C35.0028 19.0663 34.8568 18.3123 34.5733 17.6273C34.2898 16.9424 33.8767 16.3452 33.3665 15.8829V15.8829ZM39.1667 31.7658H35V23.4463C38.4367 22.6125 40.4745 20.5443 41.5969 18.9019C41.6206 18.867 41.6435 18.8324 41.6667 18.7977V28.7878C41.6659 29.5773 41.4023 30.3343 40.9336 30.8926C40.4649 31.4509 39.8295 31.7649 39.1667 31.7658V31.7658ZM45.8333 18.8609H43.3333V12.9049H45.8333C46.4964 12.9049 47.1323 13.2186 47.6011 13.7771C48.0699 14.3356 48.3333 15.0931 48.3333 15.8829C48.3333 16.6727 48.0699 17.4302 47.6011 17.9887C47.1323 18.5472 46.4964 18.8609 45.8333 18.8609Z" fill="black"/>
</svg>
