<svg width="25" height="25" viewBox="0 0 25 25" fill="none" xmlns="http://www.w3.org/2000/svg">
<path d="M6.98351 17.7339H7.77878H21.338C21.6656 17.7339 21.9543 17.4822 22.0478 17.115L24.9692 5.64532C25.0359 5.38326 24.9929 5.09972 24.8531 4.88048C24.7133 4.66123 24.4932 4.53208 24.2594 4.53208H5.40963L4.41295 0.618795C4.31944 0.251674 4.03072 6.30478e-09 3.70308 6.30478e-09H0.740675C0.331641 -5.70887e-05 0 0.387675 0 0.866016C0 1.3443 0.331641 1.73209 0.740675 1.73209H3.15089L4.14283 5.62659C4.14586 5.63944 4.14903 5.65217 4.15255 5.66473L6.78761 16.0105C5.28351 16.1288 4.09049 17.5964 4.09049 19.3847C4.09049 21.2499 5.38829 22.7675 6.98346 22.7675H7.71877C8.0401 24.0557 9.05847 25 10.2626 25C11.4666 25 12.485 24.0558 12.8064 22.7675H16.7362C17.0575 24.0557 18.0759 25 19.28 25C20.484 25 21.5024 24.0558 21.8238 22.7675H22.778C23.1871 22.7675 23.5187 22.3797 23.5187 21.9014C23.5187 21.4231 23.1871 21.0353 22.778 21.0353H21.8238C21.5024 19.747 20.4841 18.8028 19.28 18.8028C18.0759 18.8028 17.0575 19.747 16.7362 21.0353H12.8064C12.485 19.747 11.4667 18.8028 10.2626 18.8028C9.05847 18.8028 8.04006 19.747 7.71877 21.0353H6.98346C6.20504 21.0353 5.57179 20.2948 5.57179 19.3846C5.57179 18.4744 6.20509 17.7339 6.98351 17.7339ZM17.849 6.26412H23.266L22.2465 10.2669H17.849V6.26412ZM17.8489 11.999H21.8053L20.7858 16.0018H17.8489V11.999ZM12.3684 6.26412H16.3677V10.2669H12.3684V6.26412ZM12.3683 11.999H16.3676V16.0018H12.3683V11.999ZM10.8871 16.0018H8.33102L7.31154 11.999H10.8871V16.0018ZM5.85089 6.26412H10.8871V10.2669H6.87038L5.85089 6.26412ZM19.28 20.5349C19.9244 20.5349 20.4486 21.1479 20.4486 21.9013C20.4486 22.6548 19.9244 23.2678 19.28 23.2678C18.6356 23.2678 18.1114 22.6548 18.1114 21.9013C18.1114 21.1479 18.6356 20.5349 19.28 20.5349ZM10.2626 20.5349C10.907 20.5349 11.4312 21.1479 11.4312 21.9013C11.4312 22.6548 10.907 23.2678 10.2626 23.2678C9.61823 23.2678 9.09401 22.6548 9.09401 21.9013C9.09401 21.1479 9.61823 20.5349 10.2626 20.5349Z" fill="#CACACA"/>
</svg>
