<svg width="21" height="25" viewBox="0 0 21 25" fill="none" xmlns="http://www.w3.org/2000/svg">
<path d="M18.0025 3.32847L16.6869 2.93296C16.5532 2.32373 16.2156 1.77838 15.7298 1.38711C15.2441 0.995843 14.6393 0.782105 14.0156 0.78125H6.98437C6.36065 0.782105 5.75591 0.995843 5.27017 1.38711C4.78443 1.77838 4.4468 2.32373 4.31313 2.93296L2.99751 3.32847C2.23856 3.51951 1.5652 3.95867 1.08439 4.57619C0.603585 5.19371 0.342903 5.95419 0.343752 6.73682V21.4844C0.343711 21.6491 0.37849 21.812 0.445808 21.9624C0.513127 22.1127 0.611465 22.2472 0.734377 22.3569V23.8281C0.734377 23.9317 0.775532 24.0311 0.848788 24.1043C0.922045 24.1776 1.0214 24.2188 1.125 24.2188H3.46875C3.57235 24.2188 3.67171 24.1776 3.74496 24.1043C3.81822 24.0311 3.85938 23.9317 3.85938 23.8281V22.3569C3.97899 22.25 4.07534 22.1197 4.14243 21.974C4.20952 21.8283 4.24592 21.6704 4.24937 21.5101C4.48114 21.6796 4.74856 21.7941 5.03125 21.8448V23.0469C5.03125 23.1505 5.0724 23.2498 5.14566 23.3231C5.21892 23.3963 5.31827 23.4375 5.42187 23.4375H15.5781C15.6817 23.4375 15.7811 23.3963 15.8543 23.3231C15.9276 23.2498 15.9687 23.1505 15.9687 23.0469V21.8448C16.2514 21.7941 16.5189 21.6796 16.7506 21.5101C16.7541 21.6704 16.7905 21.8283 16.8576 21.974C16.9247 22.1197 17.021 22.25 17.1406 22.3569V23.8281C17.1406 23.9317 17.1818 24.0311 17.255 24.1043C17.3283 24.1776 17.4276 24.2188 17.5312 24.2188H19.875C19.9786 24.2188 20.0779 24.1776 20.1512 24.1043C20.2245 24.0311 20.2656 23.9317 20.2656 23.8281V22.3569C20.3885 22.2472 20.4869 22.1127 20.5542 21.9624C20.6215 21.812 20.6563 21.6491 20.6562 21.4844V6.73682C20.6571 5.95419 20.3964 5.19371 19.9156 4.57619C19.4348 3.95867 18.7614 3.51951 18.0025 3.32847V3.32847ZM14.2371 1.57495C14.6788 1.62603 15.0899 1.82602 15.4028 2.14198C15.7157 2.45794 15.9116 2.87103 15.9584 3.31323L11.6396 6.19243L14.2371 1.57495ZM8.5312 3.125H12.4688L10.5 6.6251L8.5312 3.125ZM12.9082 2.34375H8.09175L7.65229 1.5625H13.3477L12.9082 2.34375ZM6.76294 1.57495L9.36059 6.19268L5.0416 3.31348C5.0883 2.87123 5.28423 2.45808 5.59711 2.14207C5.91 1.82606 6.32118 1.62604 6.76294 1.57495V1.57495ZM3.07813 23.4375H1.51563V22.6562H3.07813V23.4375ZM15.1875 22.6562H5.8125V21.875H15.1875V22.6562ZM15.6336 21.0938H5.36641C5.07042 21.0934 4.78665 20.9757 4.57736 20.7664C4.36807 20.5571 4.25034 20.2733 4.25 19.9773V9.375C4.25 9.2714 4.20885 9.17204 4.13559 9.09879C4.06233 9.02553 3.96298 8.98438 3.85938 8.98438C3.75578 8.98438 3.65642 9.02553 3.58316 9.09879C3.50991 9.17204 3.46875 9.2714 3.46875 9.375V21.4844C3.46863 21.5879 3.42744 21.6872 3.35421 21.7605C3.28098 21.8337 3.18169 21.8749 3.07813 21.875H1.51563C1.41206 21.8749 1.31277 21.8337 1.23954 21.7605C1.16631 21.6872 1.12512 21.5879 1.125 21.4844V6.73682C1.12431 6.12683 1.3279 5.53419 1.70329 5.05339C2.07868 4.5726 2.60425 4.23136 3.19619 4.08408C3.20215 4.08257 3.20806 4.08096 3.21392 4.0792L4.325 3.74522C4.35206 3.78263 4.38556 3.81493 4.42393 3.84062L9.32812 7.11011V12.5C9.32812 12.6036 9.36928 12.703 9.44253 12.7762C9.51579 12.8495 9.61515 12.8906 9.71875 12.8906C9.82235 12.8906 9.9217 12.8495 9.99496 12.7762C10.0682 12.703 10.1094 12.6036 10.1094 12.5V7.63091L10.2833 7.74688C10.3475 7.78966 10.4229 7.81249 10.5 7.81249C10.5771 7.81249 10.6525 7.78966 10.7167 7.74688L10.8906 7.63091V12.5C10.8906 12.6036 10.9318 12.703 11.005 12.7762C11.0783 12.8495 11.1776 12.8906 11.2812 12.8906C11.3848 12.8906 11.4842 12.8495 11.5575 12.7762C11.6307 12.703 11.6719 12.6036 11.6719 12.5V7.11011L16.5761 3.84062C16.6144 3.81493 16.6479 3.78263 16.675 3.74522L17.7861 4.0792C17.7919 4.08096 17.7978 4.08257 17.8038 4.08408C18.3957 4.23136 18.9213 4.5726 19.2967 5.05339C19.6721 5.53419 19.8757 6.12683 19.875 6.73682V21.4844C19.8749 21.5879 19.8337 21.6872 19.7605 21.7605C19.6872 21.8337 19.5879 21.8749 19.4844 21.875H17.9219C17.8183 21.8749 17.719 21.8337 17.6458 21.7605C17.5726 21.6872 17.5314 21.5879 17.5312 21.4844V9.375C17.5312 9.2714 17.4901 9.17204 17.4168 9.09879C17.3436 9.02553 17.2442 8.98438 17.1406 8.98438C17.037 8.98438 16.9377 9.02553 16.8644 9.09879C16.7911 9.17204 16.75 9.2714 16.75 9.375V19.9773C16.7497 20.2733 16.6319 20.5571 16.4226 20.7664C16.2133 20.9757 15.9296 21.0934 15.6336 21.0938V21.0938ZM19.4844 23.4375H17.9219V22.6562H19.4844V23.4375Z" fill="black"/>
</svg>
