<svg width="25" height="25" viewBox="0 0 25 25" fill="none" xmlns="http://www.w3.org/2000/svg">
<path d="M24.7491 11.8682L22.9627 10.0833L13.1323 0.261447C12.7833 -0.0871489 12.2176 -0.0871489 11.8687 0.261447L2.03821 10.0833L0.250879 11.8691C-0.0919987 12.2238 -0.0822067 12.7891 0.272819 13.1316C0.619153 13.4659 1.16819 13.4659 1.51452 13.1316L1.77545 12.8691V24.1071C1.77545 24.6002 2.17556 25 2.66914 25H22.33C22.8236 25 23.2237 24.6002 23.2237 24.1071V12.8691L23.4855 13.1308C23.8405 13.4733 24.4062 13.4635 24.7491 13.1088C25.0836 12.7628 25.0836 12.2142 24.7491 11.8682ZM15.1806 23.2142H9.81856V16.071H15.1806V23.2142ZM21.4363 23.2142H16.9679V15.1782C16.9679 14.685 16.5678 14.2853 16.0742 14.2853H8.92487C8.43129 14.2853 8.03118 14.685 8.03118 15.1782V23.2142H3.56283V11.0833L12.4995 2.15437L21.4363 11.0833V23.2142Z" fill="black"/>
</svg>
