<svg width="15" height="25" viewBox="0 0 15 25" fill="none" xmlns="http://www.w3.org/2000/svg">
<path d="M14.8063 24.6802L14.0892 0.30148C14.0842 0.133496 13.9466 -5.70802e-05 13.7786 1.83018e-08H1.21688C1.04884 -5.70802e-05 0.911236 0.133496 0.906268 0.30148L0.193678 24.6802C0.188654 24.8517 0.32352 24.9948 0.495044 24.9999C0.498128 25 0.501211 25 0.504295 25H4.2728C4.4196 24.9999 4.54636 24.897 4.57656 24.7533L7.50229 10.6957L10.428 24.7533C10.4582 24.897 10.585 24.9999 10.7318 25H14.4957C14.6672 25.0001 14.8064 24.8611 14.8064 24.6895C14.8064 24.6864 14.8064 24.6833 14.8063 24.6802ZM13.6461 6.30596C12.9038 6.00448 12.5338 3.8393 12.4836 2.12178H13.5228L13.6461 6.30596ZM11.5129 0.623515H13.4771L13.5045 1.50968H11.5129V0.623515ZM7.8129 0.623515H10.8939V1.50283L8.20574 1.50968H7.8129V0.623515V0.623515ZM7.89513 2.13092V6.2991C7.42994 6.16087 7.11054 5.73377 7.10945 5.24849V2.13092H7.89513V2.13092ZM3.98502 0.623515H7.18254V1.50283L6.79883 1.50968H3.98502V0.623515ZM1.5275 0.623515H3.36379V1.50283H1.50009L1.5275 0.623515ZM1.48182 2.12406H2.52101C2.47077 3.84159 2.10077 6.00676 1.35849 6.30824L1.48182 2.12406ZM10.9853 24.3765L7.80605 9.10835C7.7702 8.9406 7.60518 8.83365 7.43742 8.86945C7.31769 8.89503 7.2241 8.98856 7.19852 9.10835L4.01928 24.3765H0.821762L1.33565 6.95231C2.87046 6.72392 3.1057 3.36424 3.13768 2.12178H6.48822V5.24849C6.48947 6.19656 7.25768 6.96476 8.20574 6.96602C8.37727 6.96602 8.51636 6.82692 8.51636 6.6554V2.12178H11.86C11.8943 3.36424 12.1296 6.73534 13.6689 6.95231L14.176 24.3765H10.9853Z" fill="black"/>
</svg>
