<svg width="25" height="25" viewBox="0 0 25 25" fill="none" xmlns="http://www.w3.org/2000/svg">
<path d="M5.76992 22.6459L12.4105 24.2084C12.4694 24.2222 12.5306 24.2222 12.5895 24.2084L19.2301 22.6459C19.3158 22.6257 19.3922 22.5772 19.4468 22.5082C19.5015 22.4391 19.5313 22.3537 19.5312 22.2656V20.3125H21.4844C21.5764 20.3125 21.6654 20.28 21.7358 20.2208C21.8062 20.1616 21.8535 20.0795 21.8692 19.9888L23.4317 11.0044C23.4432 10.9385 23.4375 10.8707 23.4152 10.8075L21.0715 4.16689C21.05 4.10601 21.0138 4.0514 20.966 4.00796C20.9183 3.96451 20.8605 3.93358 20.7979 3.91793L16.2383 2.77805L14.7582 0.927832C14.722 0.882612 14.6762 0.846003 14.6241 0.820652C14.572 0.795301 14.515 0.781842 14.457 0.78125H10.543C10.485 0.781842 10.428 0.795301 10.3759 0.820652C10.3238 0.846003 10.278 0.882612 10.2418 0.927832L8.76167 2.77805L4.20213 3.91793C4.13949 3.93358 4.08172 3.96451 4.03397 4.00796C3.98622 4.0514 3.94999 4.10601 3.92852 4.16689L1.58477 10.8075C1.5625 10.8707 1.55682 10.9385 1.56827 11.0044L3.13077 19.9888C3.14654 20.0795 3.19379 20.1616 3.26419 20.2208C3.33459 20.28 3.42363 20.3125 3.51562 20.3125H5.46875V22.2656C5.46874 22.3537 5.49848 22.4391 5.55315 22.5082C5.60782 22.5772 5.68421 22.6257 5.76992 22.6459V22.6459ZM12.5 2.90549L11.3808 1.5625H13.6192L12.5 2.90549ZM19.5312 19.5312V18.3594H21.3596L21.1558 19.5312H19.5312ZM22.6445 10.9712L21.4955 17.5781H19.5312V8.59375H18.75V21.9563L12.8906 23.3349V4.45871L14.1769 5.74498C14.2502 5.81821 14.3495 5.85935 14.4531 5.85938C14.4659 5.85938 14.4788 5.85875 14.4916 5.85747C14.5491 5.85178 14.6047 5.83339 14.6542 5.80364C14.7038 5.77389 14.7461 5.73351 14.7781 5.68542L16.1879 3.57071L20.4047 4.62489L22.6445 10.9712ZM15.5322 3.14598L14.3924 4.85563L13.0285 3.49164L14.447 1.78947L15.5322 3.14598ZM10.553 1.78947L11.9715 3.49164L10.6076 4.85563L9.46784 3.14598L10.553 1.78947ZM4.59532 4.62489L8.81204 3.57071L10.2219 5.68542C10.2539 5.73351 10.2962 5.77389 10.3458 5.80364C10.3953 5.83339 10.4509 5.85178 10.5084 5.85747C10.5213 5.85875 10.5341 5.85939 10.5469 5.85938C10.6505 5.85935 10.7498 5.81821 10.8231 5.74498L12.1094 4.45871V23.3349L6.25 21.9563V8.59375H5.46875V17.5781H3.50449L2.35548 10.9712L4.59532 4.62489ZM3.64036 18.3594H5.46875V19.5312H3.84416L3.64036 18.3594Z" fill="black"/>
<path d="M14.0625 8.20312C13.9589 8.20313 13.8595 8.24429 13.7863 8.31754C13.713 8.3908 13.6719 8.49015 13.6719 8.59375V11.7188C13.6719 11.8223 13.713 11.9217 13.7863 11.995C13.8595 12.0682 13.9589 12.1094 14.0625 12.1094H17.1875C17.2911 12.1094 17.3905 12.0682 17.4637 11.995C17.537 11.9217 17.5781 11.8223 17.5781 11.7188V8.59375C17.5781 8.49015 17.537 8.3908 17.4637 8.31754C17.3905 8.24429 17.2911 8.20313 17.1875 8.20312H14.0625ZM16.7969 11.3281H14.4531V8.98438H16.7969V11.3281Z" fill="black"/>
</svg>
