<svg width="25" height="25" viewBox="0 0 25 25" fill="none" xmlns="http://www.w3.org/2000/svg">
<g clip-path="url(#clip0)">
<path d="M24.8652 7.237C24.8594 7.23093 24.8535 7.22498 24.8474 7.21922L19.6868 2.63251C19.6397 2.58959 19.5847 2.55629 19.5249 2.5344L15.7917 1.20009C15.5371 1.10762 15.2557 1.23915 15.1632 1.49381C15.1465 1.53974 15.1368 1.58787 15.1344 1.63668C15.1344 1.7446 14.9725 4.23173 12.4854 4.27097C9.98354 4.23173 9.82656 1.7446 9.82166 1.63668C9.80719 1.36614 9.57613 1.15857 9.30559 1.17304C9.25911 1.17556 9.21318 1.18463 9.16922 1.20009L5.44098 2.54912C5.38114 2.57101 5.32619 2.60431 5.2791 2.64723L0.152779 7.21922C-0.043628 7.40581 -0.0515996 7.71634 0.134996 7.91274C0.14076 7.91881 0.146708 7.92476 0.152779 7.93053L4.23421 12.0561V23.3389C4.23421 23.6098 4.45386 23.8295 4.72477 23.8295H20.2754C20.5463 23.8295 20.766 23.6098 20.766 23.3389V12.0561L24.8474 7.93053C25.0438 7.74393 25.0518 7.43347 24.8652 7.237ZM20.7513 10.658V8.38184C20.7513 8.11093 20.5316 7.89128 20.2607 7.89128C19.9898 7.89128 19.7702 8.11093 19.7702 8.38184V22.8238H5.1957V8.38184C5.1957 8.11093 4.97606 7.89128 4.70515 7.89128C4.43424 7.89128 4.21459 8.11093 4.21459 8.38184V10.6629L1.19767 7.60676L5.86777 3.42721L8.93865 2.31856C9.31908 4.2787 11.2165 5.55936 13.1766 5.17893C14.6242 4.89796 15.756 3.76613 16.037 2.31856L19.1079 3.42721L23.7633 7.60676L20.7513 10.658Z" fill="black"/>
</g>
<defs>
<clipPath id="clip0">
<rect width="25" height="25" fill="white"/>
</clipPath>
</defs>
</svg>
