<svg width="25" height="23" viewBox="0 0 25 23" fill="none" xmlns="http://www.w3.org/2000/svg">
<path d="M12.5 22.242C12.1441 22.242 11.8009 22.113 11.5335 21.8788C10.5236 20.9957 9.54989 20.1658 8.69082 19.4338L8.68643 19.43C6.16778 17.2836 3.99284 15.4301 2.47955 13.6042C0.787924 11.5629 0 9.62753 0 7.51324C0 5.45902 0.704382 3.56388 1.98326 2.17667C3.27739 0.773048 5.05313 0 6.98393 0C8.42703 0 9.74863 0.456238 10.9119 1.35593C11.499 1.81007 12.0312 2.36588 12.5 3.01418C12.969 2.36588 13.501 1.81007 14.0882 1.35593C15.2515 0.456238 16.5731 0 18.0162 0C19.9468 0 21.7228 0.773048 23.0169 2.17667C24.2958 3.56388 25 5.45902 25 7.51324C25 9.62753 24.2122 11.5629 22.5206 13.604C21.0073 15.4301 18.8326 17.2834 16.3143 19.4296C15.4537 20.1628 14.4785 20.994 13.4662 21.8792C13.199 22.113 12.8557 22.242 12.5 22.242ZM6.98393 1.46446C5.46702 1.46446 4.07352 2.06985 3.05976 3.16925C2.03094 4.28524 1.46427 5.8279 1.46427 7.51324C1.46427 9.29146 2.12516 10.8818 3.60698 12.6698C5.03921 14.398 7.16952 16.2134 9.6361 18.3155L9.64068 18.3193C10.503 19.0542 11.4805 19.8874 12.4979 20.7769C13.5214 19.8856 14.5004 19.0512 15.3644 18.3151C17.8308 16.213 19.9609 14.398 21.3932 12.6698C22.8748 10.8818 23.5357 9.29146 23.5357 7.51324C23.5357 5.8279 22.969 4.28524 21.9402 3.16925C20.9266 2.06985 19.5329 1.46446 18.0162 1.46446C16.905 1.46446 15.8848 1.8177 14.9839 2.51427C14.1811 3.1353 13.6219 3.92036 13.294 4.46968C13.1254 4.75216 12.8286 4.92077 12.5 4.92077C12.1713 4.92077 11.8746 4.75216 11.7059 4.46968C11.3783 3.92036 10.819 3.1353 10.016 2.51427C9.1152 1.8177 8.09496 1.46446 6.98393 1.46446Z" fill="black"/>
</svg>
