<svg width="25" height="25" viewBox="0 0 25 25" fill="none" xmlns="http://www.w3.org/2000/svg">
<path d="M22.2656 7.03125H21.0938V4.6875C21.0932 4.16968 20.8872 3.67323 20.5211 3.30707C20.1549 2.94092 19.6584 2.73496 19.1406 2.73438H2.73438C2.21655 2.73496 1.72011 2.94092 1.35395 3.30707C0.987793 3.67323 0.781832 4.16968 0.78125 4.6875V16.0791C0.781566 16.484 0.907559 16.8788 1.14184 17.209C1.37611 17.5392 1.70712 17.7886 2.08916 17.9226V17.9226L14.5892 22.2976C14.7985 22.3714 15.0188 22.4093 15.2407 22.4096C15.7576 22.4067 16.2524 22.1994 16.6171 21.8331C16.9818 21.4667 17.1869 20.971 17.1875 20.4541V16.0156H19.1406C19.6584 16.015 20.1549 15.8091 20.5211 15.4429C20.8872 15.0768 21.0932 14.5803 21.0938 14.0625V10.9375H22.2656C22.7836 10.9375 23.2804 10.7317 23.6467 10.3654C24.013 9.99916 24.2188 9.50238 24.2188 8.98438C24.2188 8.46637 24.013 7.96959 23.6467 7.60331C23.2804 7.23703 22.7836 7.03125 22.2656 7.03125V7.03125ZM14.25 8.20313L11.6458 7.42188H20.3125V8.20313H14.25ZM20.3125 6.64063H9.0417L6.43755 5.85938H20.3125V6.64063ZM2.73438 3.51563H19.1406C19.4513 3.51597 19.7492 3.63955 19.9689 3.85924C20.1886 4.07894 20.3122 4.37681 20.3125 4.6875V5.07813H3.83335L1.59668 4.40713C1.65967 4.1529 1.80588 3.92705 2.01204 3.7655C2.2182 3.60396 2.47246 3.516 2.73438 3.51563V3.51563ZM16.4062 20.4541C16.4063 20.6413 16.3614 20.8257 16.2755 20.992C16.1896 21.1583 16.0651 21.3016 15.9125 21.4099C15.7598 21.5182 15.5835 21.5883 15.3981 21.6145C15.2128 21.6406 15.0239 21.622 14.8473 21.5602L2.34727 17.1852C2.11803 17.1048 1.91942 16.9552 1.77885 16.757C1.63828 16.5589 1.56268 16.322 1.5625 16.0791V5.2125L15.5713 9.41509C15.8133 9.48651 16.0255 9.63457 16.1761 9.83699C16.3266 10.0394 16.4074 10.2853 16.4062 10.5375V20.4541ZM16.4218 8.98438H20.127C19.7985 9.6312 18.9878 10.7422 17.1875 11.1604V10.5375C17.1888 10.2371 17.1204 9.94035 16.9875 9.67082C16.8546 9.40129 16.6609 9.16631 16.4218 8.98438V8.98438ZM19.1406 15.2344H17.1875V11.9606C18.7984 11.6325 19.7537 10.8187 20.2798 10.1724C20.2909 10.1586 20.3017 10.145 20.3125 10.1313V14.0625C20.3122 14.3732 20.1886 14.6711 19.9689 14.8908C19.7492 15.1105 19.4513 15.234 19.1406 15.2344V15.2344ZM22.2656 10.1563H21.0938V7.8125H22.2656C22.5764 7.8125 22.8745 7.93597 23.0943 8.15573C23.314 8.3755 23.4375 8.67357 23.4375 8.98438C23.4375 9.29518 23.314 9.59325 23.0943 9.81302C22.8745 10.0328 22.5764 10.1563 22.2656 10.1563Z" fill="black"/>
<path d="M12.8906 13.6719C12.6588 13.6719 12.4323 13.7406 12.2396 13.8694C12.0469 13.9981 11.8967 14.1812 11.808 14.3953C11.7193 14.6094 11.6961 14.845 11.7413 15.0724C11.7865 15.2997 11.8981 15.5085 12.062 15.6724C12.2259 15.8363 12.4347 15.9479 12.662 15.9931C12.8893 16.0383 13.1249 16.0151 13.3391 15.9264C13.5532 15.8377 13.7362 15.6875 13.865 15.4948C13.9938 15.3021 14.0625 15.0755 14.0625 14.8437C14.0621 14.5331 13.9386 14.2352 13.7189 14.0155C13.4992 13.7958 13.2013 13.6722 12.8906 13.6719V13.6719ZM12.8906 15.2344C12.8134 15.2344 12.7378 15.2115 12.6736 15.1685C12.6094 15.1256 12.5593 15.0646 12.5297 14.9932C12.5002 14.9219 12.4924 14.8433 12.5075 14.7675C12.5226 14.6918 12.5598 14.6222 12.6144 14.5675C12.669 14.5129 12.7386 14.4757 12.8144 14.4606C12.8902 14.4456 12.9687 14.4533 13.0401 14.4829C13.1115 14.5124 13.1725 14.5625 13.2154 14.6267C13.2583 14.691 13.2812 14.7665 13.2812 14.8437C13.2811 14.9473 13.2399 15.0466 13.1667 15.1198C13.0935 15.1931 12.9942 15.2343 12.8906 15.2344V15.2344Z" fill="black"/>
<path d="M22.2656 9.375C22.4814 9.375 22.6562 9.20011 22.6562 8.98438C22.6562 8.76864 22.4814 8.59375 22.2656 8.59375C22.0499 8.59375 21.875 8.76864 21.875 8.98438C21.875 9.20011 22.0499 9.375 22.2656 9.375Z" fill="black"/>
</svg>
